<mxfile host="app.diagrams.net" modified="2021-04-04T11:00:41.237Z" agent="5.0 (Macintosh; Intel Mac OS X 10_15_7) AppleWebKit/537.36 (KHTML, like Gecko) Chrome/89.0.4389.114 Safari/537.36" etag="OK5Bcmk9f8ssjpYLaafU" version="14.4.8" type="github">
  <diagram id="CqeL1tvH9lFPdygcduWC" name="Page-1">
    <mxGraphModel dx="1113" dy="621" grid="1" gridSize="10" guides="1" tooltips="1" connect="1" arrows="1" fold="1" page="1" pageScale="1" pageWidth="1600" pageHeight="900" math="0" shadow="0">
      <root>
        <mxCell id="0" />
        <mxCell id="1" parent="0" />
        <mxCell id="Mcj5wSubtzlvoWOdFE_G-1" value="トップ" style="rounded=0;whiteSpace=wrap;html=1;" vertex="1" parent="1">
          <mxGeometry x="740" y="90" width="120" height="60" as="geometry" />
        </mxCell>
        <mxCell id="Mcj5wSubtzlvoWOdFE_G-2" value="メイン" style="rounded=0;whiteSpace=wrap;html=1;" vertex="1" parent="1">
          <mxGeometry x="740" y="240" width="120" height="60" as="geometry" />
        </mxCell>
        <mxCell id="Mcj5wSubtzlvoWOdFE_G-3" value="投稿" style="rounded=0;whiteSpace=wrap;html=1;" vertex="1" parent="1">
          <mxGeometry x="540" y="390" width="120" height="60" as="geometry" />
        </mxCell>
        <mxCell id="Mcj5wSubtzlvoWOdFE_G-4" value="閲覧" style="rounded=0;whiteSpace=wrap;html=1;" vertex="1" parent="1">
          <mxGeometry x="740" y="390" width="120" height="60" as="geometry" />
        </mxCell>
        <mxCell id="Mcj5wSubtzlvoWOdFE_G-5" value="編集" style="rounded=0;whiteSpace=wrap;html=1;" vertex="1" parent="1">
          <mxGeometry x="940" y="390" width="120" height="60" as="geometry" />
        </mxCell>
        <mxCell id="Mcj5wSubtzlvoWOdFE_G-6" value="ユーザー詳細" style="rounded=0;whiteSpace=wrap;html=1;" vertex="1" parent="1">
          <mxGeometry x="940" y="240" width="120" height="60" as="geometry" />
        </mxCell>
        <mxCell id="Mcj5wSubtzlvoWOdFE_G-7" value="検索" style="rounded=0;whiteSpace=wrap;html=1;" vertex="1" parent="1">
          <mxGeometry x="540" y="240" width="120" height="60" as="geometry" />
        </mxCell>
        <mxCell id="Mcj5wSubtzlvoWOdFE_G-8" value="" style="endArrow=classic;html=1;" edge="1" parent="1">
          <mxGeometry width="50" height="50" relative="1" as="geometry">
            <mxPoint x="799.41" y="150" as="sourcePoint" />
            <mxPoint x="799" y="240" as="targetPoint" />
          </mxGeometry>
        </mxCell>
        <mxCell id="Mcj5wSubtzlvoWOdFE_G-9" value="" style="endArrow=classic;html=1;" edge="1" parent="1">
          <mxGeometry width="50" height="50" relative="1" as="geometry">
            <mxPoint x="799.8199999999998" y="300" as="sourcePoint" />
            <mxPoint x="799.41" y="390" as="targetPoint" />
          </mxGeometry>
        </mxCell>
        <mxCell id="Mcj5wSubtzlvoWOdFE_G-11" value="" style="endArrow=classic;html=1;" edge="1" parent="1">
          <mxGeometry width="50" height="50" relative="1" as="geometry">
            <mxPoint x="860" y="269.41" as="sourcePoint" />
            <mxPoint x="940" y="269" as="targetPoint" />
          </mxGeometry>
        </mxCell>
        <mxCell id="Mcj5wSubtzlvoWOdFE_G-12" value="" style="endArrow=classic;html=1;" edge="1" parent="1">
          <mxGeometry width="50" height="50" relative="1" as="geometry">
            <mxPoint x="860" y="419.82000000000005" as="sourcePoint" />
            <mxPoint x="940" y="419.40999999999997" as="targetPoint" />
          </mxGeometry>
        </mxCell>
        <mxCell id="Mcj5wSubtzlvoWOdFE_G-13" value="" style="endArrow=classic;html=1;" edge="1" parent="1">
          <mxGeometry width="50" height="50" relative="1" as="geometry">
            <mxPoint x="740" y="269" as="sourcePoint" />
            <mxPoint x="660" y="269.41" as="targetPoint" />
          </mxGeometry>
        </mxCell>
        <mxCell id="Mcj5wSubtzlvoWOdFE_G-15" value="" style="endArrow=classic;html=1;" edge="1" parent="1">
          <mxGeometry width="50" height="50" relative="1" as="geometry">
            <mxPoint x="740" y="419.40999999999997" as="sourcePoint" />
            <mxPoint x="660" y="419.82000000000005" as="targetPoint" />
          </mxGeometry>
        </mxCell>
        <mxCell id="Mcj5wSubtzlvoWOdFE_G-24" value="" style="edgeStyle=orthogonalEdgeStyle;rounded=0;orthogonalLoop=1;jettySize=auto;html=1;" edge="1" parent="1" target="Mcj5wSubtzlvoWOdFE_G-19">
          <mxGeometry relative="1" as="geometry">
            <mxPoint x="1200" y="210" as="sourcePoint" />
          </mxGeometry>
        </mxCell>
        <mxCell id="Mcj5wSubtzlvoWOdFE_G-16" value="ユーザー編集" style="rounded=0;whiteSpace=wrap;html=1;" vertex="1" parent="1">
          <mxGeometry x="1140" y="210" width="120" height="60" as="geometry" />
        </mxCell>
        <mxCell id="Mcj5wSubtzlvoWOdFE_G-18" value="" style="endArrow=classic;html=1;entryX=0;entryY=0.5;entryDx=0;entryDy=0;" edge="1" parent="1" target="Mcj5wSubtzlvoWOdFE_G-16">
          <mxGeometry width="50" height="50" relative="1" as="geometry">
            <mxPoint x="1060" y="269.8200000000001" as="sourcePoint" />
            <mxPoint x="1100" y="240" as="targetPoint" />
            <Array as="points">
              <mxPoint x="1100" y="269" />
              <mxPoint x="1100" y="240" />
            </Array>
          </mxGeometry>
        </mxCell>
        <mxCell id="Mcj5wSubtzlvoWOdFE_G-19" value="退会" style="rounded=0;whiteSpace=wrap;html=1;" vertex="1" parent="1">
          <mxGeometry x="1140" y="90" width="120" height="60" as="geometry" />
        </mxCell>
        <mxCell id="Mcj5wSubtzlvoWOdFE_G-20" value="" style="endArrow=classic;html=1;entryX=0.5;entryY=1;entryDx=0;entryDy=0;" edge="1" parent="1" target="Mcj5wSubtzlvoWOdFE_G-19">
          <mxGeometry width="50" height="50" relative="1" as="geometry">
            <mxPoint x="1200" y="210" as="sourcePoint" />
            <mxPoint x="1250" y="190" as="targetPoint" />
          </mxGeometry>
        </mxCell>
        <mxCell id="Mcj5wSubtzlvoWOdFE_G-21" value="" style="endArrow=classic;html=1;entryX=1;entryY=0.5;entryDx=0;entryDy=0;" edge="1" parent="1" target="Mcj5wSubtzlvoWOdFE_G-1">
          <mxGeometry width="50" height="50" relative="1" as="geometry">
            <mxPoint x="1140" y="119.41" as="sourcePoint" />
            <mxPoint x="1060" y="119.82000000000008" as="targetPoint" />
          </mxGeometry>
        </mxCell>
        <mxCell id="Mcj5wSubtzlvoWOdFE_G-23" value="投稿一覧" style="rounded=0;whiteSpace=wrap;html=1;" vertex="1" parent="1">
          <mxGeometry x="1140" y="280" width="120" height="60" as="geometry" />
        </mxCell>
        <mxCell id="Mcj5wSubtzlvoWOdFE_G-25" value="" style="endArrow=classic;html=1;entryX=0;entryY=0.64;entryDx=0;entryDy=0;entryPerimeter=0;" edge="1" parent="1" target="Mcj5wSubtzlvoWOdFE_G-23">
          <mxGeometry width="50" height="50" relative="1" as="geometry">
            <mxPoint x="1060" y="270" as="sourcePoint" />
            <mxPoint x="1150" y="250" as="targetPoint" />
            <Array as="points">
              <mxPoint x="1100" y="270" />
              <mxPoint x="1100" y="318" />
            </Array>
          </mxGeometry>
        </mxCell>
        <mxCell id="Mcj5wSubtzlvoWOdFE_G-26" value="" style="endArrow=classic;html=1;entryX=0;entryY=0;entryDx=0;entryDy=0;exitX=0.5;exitY=1;exitDx=0;exitDy=0;" edge="1" parent="1" source="Mcj5wSubtzlvoWOdFE_G-7" target="Mcj5wSubtzlvoWOdFE_G-4">
          <mxGeometry width="50" height="50" relative="1" as="geometry">
            <mxPoint x="620" y="360" as="sourcePoint" />
            <mxPoint x="670" y="310" as="targetPoint" />
          </mxGeometry>
        </mxCell>
        <mxCell id="Mcj5wSubtzlvoWOdFE_G-27" value="" style="endArrow=classic;html=1;entryX=1;entryY=0.5;entryDx=0;entryDy=0;exitX=0.5;exitY=1;exitDx=0;exitDy=0;" edge="1" parent="1" source="Mcj5wSubtzlvoWOdFE_G-23" target="Mcj5wSubtzlvoWOdFE_G-5">
          <mxGeometry width="50" height="50" relative="1" as="geometry">
            <mxPoint x="1175" y="420" as="sourcePoint" />
            <mxPoint x="1225" y="370" as="targetPoint" />
          </mxGeometry>
        </mxCell>
      </root>
    </mxGraphModel>
  </diagram>
</mxfile>
